<svg xmlns="http://www.w3.org/2000/svg" viewBox="0 0 460 420" width="460" height="420" fill="none"><defs><linearGradient id="deep" x1="0" y1="0" x2="1" y2="0"><stop offset="0" stop-color="#3b8467"/><stop offset=".45" stop-color="#66a587"/><stop offset="1" stop-color="#9cc9b1"/></linearGradient></defs><g transform="translate(470 430) rotate(-140)"><path d="M-62.4 4Q-26 1 0 0" fill="none" stroke="#4d8f72" stroke-width="8.5" stroke-linecap="round"/><path d="M0 0C114.4 -170 374.4 -115.6 520 17C374.4 139.4 124.8 163.2 0 0Z" fill="url(#deep)"/><path d="M0 0C114.4 -170 374.4 -115.6 520 17Q260 15.3 0 0Z" fill="#3b8467" fill-opacity=".3"/><path d="M10.4 0Q260 13.6 499.2 17" fill="none" stroke="#eef8f2" stroke-opacity=".6" stroke-width="4.8" stroke-linecap="round"/><path d="M52 0.7Q104 -68 176.8 -113.9" fill="none" stroke="#eef8f2" stroke-opacity=".3" stroke-width="2.7" stroke-linecap="round"/><path d="M52 0.7Q104 68 176.8 113.9" fill="none" stroke="#eef8f2" stroke-opacity=".3" stroke-width="2.7" stroke-linecap="round"/><path d="M109.2 1.4Q161.2 -68 234 -104.5" fill="none" stroke="#eef8f2" stroke-opacity=".3" stroke-width="2.7" stroke-linecap="round"/><path d="M109.2 1.4Q161.2 68 234 104.5" fill="none" stroke="#eef8f2" stroke-opacity=".3" stroke-width="2.7" stroke-linecap="round"/><path d="M166.4 2.2Q218.4 -68 291.2 -95.2" fill="none" stroke="#eef8f2" stroke-opacity=".3" stroke-width="2.7" stroke-linecap="round"/><path d="M166.4 2.2Q218.4 68 291.2 95.2" fill="none" stroke="#eef8f2" stroke-opacity=".3" stroke-width="2.7" stroke-linecap="round"/><path d="M223.6 2.9Q275.6 -68 348.4 -85.8" fill="none" stroke="#eef8f2" stroke-opacity=".3" stroke-width="2.7" stroke-linecap="round"/><path d="M223.6 2.9Q275.6 68 348.4 85.8" fill="none" stroke="#eef8f2" stroke-opacity=".3" stroke-width="2.7" stroke-linecap="round"/><path d="M280.8 3.7Q332.8 -68 405.6 -76.5" fill="none" stroke="#eef8f2" stroke-opacity=".3" stroke-width="2.7" stroke-linecap="round"/><path d="M280.8 3.7Q332.8 68 405.6 76.5" fill="none" stroke="#eef8f2" stroke-opacity=".3" stroke-width="2.7" stroke-linecap="round"/><path d="M338 4.4Q390 -68 462.8 -67.1" fill="none" stroke="#eef8f2" stroke-opacity=".3" stroke-width="2.7" stroke-linecap="round"/><path d="M338 4.4Q390 68 462.8 67.1" fill="none" stroke="#eef8f2" stroke-opacity=".3" stroke-width="2.7" stroke-linecap="round"/><path d="M395.2 5.2Q447.2 -68 520 -57.8" fill="none" stroke="#eef8f2" stroke-opacity=".3" stroke-width="2.7" stroke-linecap="round"/><path d="M395.2 5.2Q447.2 68 520 57.8" fill="none" stroke="#eef8f2" stroke-opacity=".3" stroke-width="2.7" stroke-linecap="round"/></g></svg>
